<svg xmlns="http://www.w3.org/2000/svg" xmlns:xlink="http://www.w3.org/1999/xlink" width="104" height="103" viewBox="0 0 104 103">
  <defs>
    <clipPath id="clip-path">
      <rect id="Rectangle_147977" data-name="Rectangle 147977" width="104" height="103" transform="translate(2431 -3342)" fill="#fff" stroke="#707070" stroke-width="1"/>
    </clipPath>
    <filter id="Rectangle_5" x="-41.5" y="-22.5" width="167" height="166" filterUnits="userSpaceOnUse">
      <feOffset dx="-10" dy="9" input="SourceAlpha"/>
      <feGaussianBlur stdDeviation="10.5" result="blur"/>
      <feFlood flood-color="#8098d5" flood-opacity="0.075"/>
      <feComposite operator="in" in2="blur"/>
      <feComposite in="SourceGraphic"/>
    </filter>
  </defs>
  <g id="Mask_Group_4" data-name="Mask Group 4" transform="translate(-2431 3342)" clip-path="url(#clip-path)">
    <g id="Group_68093" data-name="Group 68093" transform="translate(1398 -3818)">
      <g transform="matrix(1, 0, 0, 1, 1033, 476)" filter="url(#Rectangle_5)">
        <rect id="Rectangle_5-2" data-name="Rectangle 5" width="104" height="103" rx="51.5" fill="#56d2dc"/>
      </g>
      <path id="credit_score_FILL1_wght700_GRAD200_opsz48" d="M40.4,58.811,28.257,46.6l4.229-4.161L40.4,50.557,56.157,34.8l4.161,4.161ZM9.157,19.383v9.141H54.179V19.383ZM2.95,13.176a6.079,6.079,0,0,1,1.842-4.4A5.913,5.913,0,0,1,9.157,6.9H54.179a6.024,6.024,0,0,1,4.4,1.876,6.024,6.024,0,0,1,1.876,4.4V28.524H56.7L40.4,44.964,32.419,36.71l-9.072,9,1.569,1.637v6.207H9.157a5.913,5.913,0,0,1-4.366-1.876A6,6,0,0,1,2.95,47.351Z" transform="translate(1053.298 496.144)" fill="#fff"/>
    </g>
  </g>
</svg>
