<svg id="align-justify" xmlns="http://www.w3.org/2000/svg" width="20.802" height="20.059" viewBox="0 0 20.802 20.059">
  <g id="Group_67814" data-name="Group 67814">
    <path id="Path_35728" data-name="Path 35728" d="M16.568,51.887H4.193a1.115,1.115,0,0,0,0,2.229H16.568a1.107,1.107,0,0,0,1.114-1.073A1.178,1.178,0,0,0,16.568,51.887Zm3.12,5.944H1.073a1.115,1.115,0,0,0,0,2.229H19.688A1.107,1.107,0,0,0,20.8,58.987,1.178,1.178,0,0,0,19.688,57.831Zm0-11.887H1.073a1.115,1.115,0,0,0,0,2.229H19.688A1.107,1.107,0,0,0,20.8,47.1,1.178,1.178,0,0,0,19.688,45.944ZM14.487,40H6.273a1.115,1.115,0,0,0,0,2.229h8.214A1.107,1.107,0,0,0,15.6,41.156,1.178,1.178,0,0,0,14.487,40Z" transform="translate(0 -40)" fill="#11141a"/>
  </g>
</svg>
