<svg xmlns="http://www.w3.org/2000/svg" width="20.802" height="20.059" viewBox="0 0 20.802 20.059">
  <g id="align-right" transform="translate(0 0)">
    <g id="Group_67816" data-name="Group 67816">
      <path id="Path_35729" data-name="Path 35729" d="M19.688,57.831H1.073a1.115,1.115,0,0,0,0,2.229H19.688A1.107,1.107,0,0,0,20.8,58.987,1.178,1.178,0,0,0,19.688,57.831Zm.144-5.944H8.4a.967.967,0,0,0-.97.97v.29a.967.967,0,0,0,.97.968H19.837a.966.966,0,0,0,.966-.97v-.288A.967.967,0,0,0,19.832,51.887Zm0-11.887H8.4a.968.968,0,0,0-.97.969v.291a.968.968,0,0,0,.97.969H19.837a.967.967,0,0,0,.966-.969v-.291A.968.968,0,0,0,19.832,40Zm-.144,5.944H1.073a1.115,1.115,0,0,0,0,2.229H19.688A1.107,1.107,0,0,0,20.8,47.1,1.178,1.178,0,0,0,19.688,45.944Z" transform="translate(0 -40)" fill="#11141a"/>
    </g>
  </g>
</svg>
