<svg id="align-left" xmlns="http://www.w3.org/2000/svg" width="20.802" height="20.059" viewBox="0 0 20.802 20.059">
  <g id="Group_67812" data-name="Group 67812" transform="translate(0 0)">
    <path id="Path_35727" data-name="Path 35727" d="M.969,42.229H12.406a.968.968,0,0,0,.967-.969v-.291A.968.968,0,0,0,12.4,40H.969A.969.969,0,0,0,0,40.969v.291A.969.969,0,0,0,.969,42.229Zm0,11.887H12.406a.966.966,0,0,0,.967-.97v-.288a.967.967,0,0,0-.97-.97H.969a.968.968,0,0,0-.969.97v.29A.968.968,0,0,0,.969,54.116Zm18.719-8.172H1.073a1.115,1.115,0,0,0,0,2.229H19.688A1.107,1.107,0,0,0,20.8,47.1,1.178,1.178,0,0,0,19.688,45.944Zm0,11.887H1.073a1.115,1.115,0,0,0,0,2.229H19.688A1.107,1.107,0,0,0,20.8,58.987,1.178,1.178,0,0,0,19.688,57.831Z" transform="translate(0 -40)" fill="#11141a"/>
  </g>
</svg>
