<svg xmlns="http://www.w3.org/2000/svg" width="28" height="27.996" viewBox="0 0 28 27.996">
  <g id="Group_68038" data-name="Group 68038" transform="translate(-4574.492 -525.782)">
    <path id="Path_35842" data-name="Path 35842" d="M4587.364,525.782h2.294a16.78,16.78,0,0,1,1.935.312A13.884,13.884,0,0,1,4602,535.968a14.629,14.629,0,0,1,.494,2.648v2.294c-.086.648-.164,1.3-.31,1.937a14,14,0,1,1-27.316-6.181,13.639,13.639,0,0,1,9.849-10.39A14.638,14.638,0,0,1,4587.364,525.782Zm12.763,13.982a11.615,11.615,0,1,0-11.623,11.616A11.622,11.622,0,0,0,4600.126,539.764Z" fill="#fff"/>
    <path id="Path_35843" data-name="Path 35843" d="M4717.773,641.592a1.137,1.137,0,0,1-.858-.353q-2.9-2.893-5.79-5.792a1.168,1.168,0,0,1,0-1.733q2.876-2.895,5.771-5.772a1.193,1.193,0,1,1,1.669,1.7q-2.32,2.333-4.65,4.654c-.282.282-.282.282,0,.564q2.3,2.3,4.595,4.593a1.294,1.294,0,0,1,.443.96A1.176,1.176,0,0,1,4717.773,641.592Z" transform="translate(-126.928 -94.817)" fill="#fff"/>
  </g>
</svg>
