<svg id="bold" xmlns="http://www.w3.org/2000/svg" width="18.07" height="21.083" viewBox="0 0 18.07 21.083">
  <g id="Group_67798" data-name="Group 67798" transform="translate(0 0)">
    <path id="Path_35719" data-name="Path 35719" d="M15.11,41.9a5.954,5.954,0,0,0,1.454-3.878A6.03,6.03,0,0,0,10.541,32H1.506a1.506,1.506,0,1,0,0,3.012h.753V50.071H1.506a1.506,1.506,0,0,0,0,3.012H12.047A6.006,6.006,0,0,0,15.11,41.9Zm-9.84-6.889h5.271a3.012,3.012,0,1,1,0,6.023H5.271ZM12.047,50.07H5.271V44.047h6.776a3.006,3.006,0,0,1,3.012,2.969A3.079,3.079,0,0,1,12.047,50.07Z" transform="translate(0 -32)" fill="#11141a"/>
  </g>
</svg>
