<svg xmlns="http://www.w3.org/2000/svg" width="21.219" height="14.129" viewBox="0 0 21.219 14.129">
  <g id="code-simple" transform="translate(0 0)">
    <g id="Group_67803" data-name="Group 67803" transform="translate(0)">
      <path id="Path_35724" data-name="Path 35724" d="M6.817,64.229a.883.883,0,0,0-1.249,0L-.613,70.409a.883.883,0,0,0,0,1.249l6.181,6.181a1.009,1.009,0,0,0,.656.259.883.883,0,0,0,.624-1.507L1.292,71.034l5.555-5.556A.859.859,0,0,0,6.817,64.229Zm13.245,6.18-6.181-6.181a.883.883,0,1,0-1.249,1.249l5.59,5.558-5.556,5.555a.883.883,0,0,0,0,1.249.862.862,0,0,0,.622.26.883.883,0,0,0,.624-.259l6.181-6.181A.86.86,0,0,0,20.062,70.408Z" transform="translate(0.871 -63.969)" fill="#11141a"/>
    </g>
  </g>
</svg>
