<svg xmlns="http://www.w3.org/2000/svg" width="38.15" height="38.15" viewBox="0 0 38.15 38.15">
  <path id="Path_35822" data-name="Path 35822" d="M26.616,43.05a4.611,4.611,0,0,1-4.55-4.55V9.5a4.43,4.43,0,0,1,1.35-3.25,4.374,4.374,0,0,1,3.2-1.35h29a4.43,4.43,0,0,1,3.25,1.35,4.43,4.43,0,0,1,1.35,3.25v29a4.374,4.374,0,0,1-1.35,3.2,4.43,4.43,0,0,1-3.25,1.35Zm14.5-9.9A6.125,6.125,0,0,0,44.741,32a9.847,9.847,0,0,0,2.725-2.95h8.15V9.5h-29V29.05h8.1A10.474,10.474,0,0,0,37.491,32,6.13,6.13,0,0,0,41.116,33.15Zm.05-6.15-7.6-7.6,2.05-2.05,4.1,4.15V11.85h2.85V21.5l4.1-4.15,2.1,2.05Z" transform="translate(-22.066 -4.9)" fill="#fff"/>
</svg>
