<svg id="face-smile-wink" xmlns="http://www.w3.org/2000/svg" width="20.802" height="20.802" viewBox="0 0 20.802 20.802">
  <g id="Group_2661" data-name="Group 2661">
    <path id="Path_20921" data-name="Path 20921" d="M13.814,12.709a4.445,4.445,0,0,1-6.827,0,.973.973,0,1,0-1.5,1.244,6.391,6.391,0,0,0,9.823,0,.973.973,0,1,0-1.5-1.242Zm-6.7-2.958a1.3,1.3,0,1,0-1.3-1.3A1.32,1.32,0,0,0,7.114,9.751Zm6.537-2.434A2.437,2.437,0,0,0,11.22,9.029a.486.486,0,0,0,.8.437l.389-.345a2.122,2.122,0,0,1,2.48,0l.38.342a.491.491,0,0,0,.814-.433A2.4,2.4,0,0,0,13.652,7.317ZM10.4,0A10.4,10.4,0,1,0,20.8,10.4,10.4,10.4,0,0,0,10.4,0Zm0,18.852A8.451,8.451,0,1,1,18.852,10.4,8.46,8.46,0,0,1,10.4,18.852Z" fill="#11141a"/>
  </g>
</svg>
