<svg xmlns="http://www.w3.org/2000/svg" width="30.964" height="28.141" viewBox="0 0 30.964 28.141">
  <g id="Group_67966" data-name="Group 67966" transform="translate(-1395.685 -1395.016)">
    <path id="Path_35817" data-name="Path 35817" d="M1597.763,1624.193c-.692,0-1.385.008-2.077,0a.37.37,0,0,0-.413.264,4.218,4.218,0,0,1-8.084-1.47,4.217,4.217,0,0,1,8.08-1.886.39.39,0,0,0,.431.282q2.093-.015,4.187,0a1.4,1.4,0,0,1,.436,2.723,2.12,2.12,0,0,1-.615.088C1599.06,1624.2,1598.412,1624.193,1597.763,1624.193Z" transform="translate(-174.623 -203.848)" fill="#38383a"/>
    <path id="Path_35818" data-name="Path 35818" d="M1399.175,1512.294c-.67,0-1.341.005-2.011,0a1.4,1.4,0,1,1,0-2.8q2.044-.01,4.088,0a.4.4,0,0,0,.437-.282,4.222,4.222,0,1,1,.014,3.387.432.432,0,0,0-.484-.313C1400.538,1512.305,1399.857,1512.294,1399.175,1512.294Z" transform="translate(-0.004 -101.81)" fill="#38383a"/>
    <path id="Path_35819" data-name="Path 35819" d="M1651.3,1399.222a4.219,4.219,0,1,1,4.2,4.235A4.2,4.2,0,0,1,1651.3,1399.222Z" transform="translate(-233.088 0)" fill="#38383a"/>
    <path id="Path_35820" data-name="Path 35820" d="M1405.576,1429.632q-4.186,0-8.371,0a1.4,1.4,0,0,1-.244-2.795,2.422,2.422,0,0,1,.361-.023q8.273,0,16.545,0a1.45,1.45,0,0,1,1.5.952,1.4,1.4,0,0,1-1.353,1.865c-1.692.01-3.384,0-5.075,0Z" transform="translate(-0.055 -28.994)" fill="#38383a"/>
    <path id="Path_35821" data-name="Path 35821" d="M1402.735,1650.43c1.868,0,3.737,0,5.6,0a1.4,1.4,0,0,1,1.351.97,1.335,1.335,0,0,1-.5,1.547,1.83,1.83,0,0,1-.919.288c-3.693.019-7.385.015-11.078.01a1.412,1.412,0,1,1,.005-2.817Q1399.965,1650.427,1402.735,1650.43Z" transform="translate(0 -232.904)" fill="#38383a"/>
    <path id="Path_35822" data-name="Path 35822" d="M1594.462,1538.676c1.857,0,3.715-.008,5.572,0a1.4,1.4,0,0,1,.147,2.792c-.088.006-.176.008-.264.008q-5.489,0-10.979,0a1.4,1.4,0,0,1-1.514-1.133,1.374,1.374,0,0,1,1.3-1.661c.823-.024,1.648-.009,2.472-.009Z" transform="translate(-174.818 -130.996)" fill="#38383a"/>
  </g>
</svg>
