<svg xmlns="http://www.w3.org/2000/svg" width="25.294" height="12.647" viewBox="0 0 25.294 12.647">
  <g id="link-simple" transform="translate(0 0)">
    <g id="Group_67801" data-name="Group 67801">
      <path id="Path_35722" data-name="Path 35722" d="M18.971,96H14.86a.949.949,0,1,0,0,1.9h4.11a4.426,4.426,0,0,1,0,8.853H14.86a.949.949,0,1,0,0,1.9h4.11a6.324,6.324,0,1,0,0-12.647Zm-8.537,10.75H6.324a4.426,4.426,0,0,1,0-8.853h4.11a.949.949,0,1,0,0-1.9H6.324a6.324,6.324,0,1,0,0,12.647h4.11a.949.949,0,1,0,0-1.9Zm-2.846-4.426a.949.949,0,0,0,.949.949h8.221a.949.949,0,1,0,0-1.9H8.537A.951.951,0,0,0,7.588,102.324Z" transform="translate(0 -96)" fill="#11141a"/>
    </g>
  </g>
</svg>
