<svg xmlns="http://www.w3.org/2000/svg" width="23.619" height="20.666" viewBox="0 0 23.619 20.666">
  <g id="list-radio" transform="translate(0 0)">
    <g id="Group_67802" data-name="Group 67802">
      <path id="Path_35723" data-name="Path 35723" d="M8.488,36.059H22.511a1.107,1.107,0,1,0,0-2.214H8.488a1.107,1.107,0,1,0,0,2.214ZM22.511,48.607H8.488a1.107,1.107,0,1,0,0,2.214H22.511a1.107,1.107,0,1,0,0-2.214Zm0-7.381H8.488a1.107,1.107,0,1,0,0,2.214H22.511a1.107,1.107,0,1,0,0-2.214ZM4.6,32.5a2.953,2.953,0,1,0,.8,4.1,2.957,2.957,0,0,0,0-3.3A2.967,2.967,0,0,0,4.6,32.5ZM2.952,39.381A2.952,2.952,0,1,0,5.9,42.333,2.954,2.954,0,0,0,2.952,39.381Zm0,4.059a1.107,1.107,0,1,1,1.107-1.107A1.109,1.109,0,0,1,2.952,43.44Zm0,3.321A2.952,2.952,0,1,0,5.9,49.714,2.952,2.952,0,0,0,2.952,46.762Zm0,4.059a1.107,1.107,0,1,1,1.107-1.107A1.109,1.109,0,0,1,2.952,50.821Z" transform="translate(0 -32)" fill="#11141a"/>
    </g>
  </g>
</svg>
