<svg id="list-ol" xmlns="http://www.w3.org/2000/svg" width="23.396" height="20.47" viewBox="0 0 23.396 20.47">
  <g id="Group_67818" data-name="Group 67818" transform="translate(0)">
    <path id="Path_35730" data-name="Path 35730" d="M9.856,36.022H22.285a1.1,1.1,0,1,0,0-2.193H9.856a1.1,1.1,0,1,0,0,2.193ZM22.285,48.45H9.856a1.1,1.1,0,0,0,0,2.193H22.285a1.1,1.1,0,1,0,0-2.193Zm0-7.311H9.856a1.1,1.1,0,0,0,0,2.193H22.285a1.1,1.1,0,1,0,0-2.193ZM1.814,40.774H5.47a1.1,1.1,0,0,0,1.1-1.138,1.07,1.07,0,0,0-1.1-1.1H4.739V33.1a1.1,1.1,0,0,0-1.649-.948L1.628,33a1.1,1.1,0,0,0,.918,1.982v3.6H1.814a1.1,1.1,0,1,0,0,2.193Zm4.4,9.5H3.956l1.663-1.484a3.317,3.317,0,0,0,.368-4.638,3.2,3.2,0,0,0-2.3-1.18,3.36,3.36,0,0,0-2.466.809l-.571.493a1.1,1.1,0,1,0,1.428,1.662l.572-.493a1.187,1.187,0,0,1,.866-.281,1.166,1.166,0,0,1,.805.41,1.105,1.105,0,0,1-.14,1.57L.352,50.558a1.095,1.095,0,0,0,.729,1.913H6.217a1.088,1.088,0,0,0,1.095-1.056A1.111,1.111,0,0,0,6.215,50.278Z" transform="translate(0.014 -32.001)" fill="#11141a"/>
  </g>
</svg>
