<svg xmlns="http://www.w3.org/2000/svg" width="26.996" height="30.555" viewBox="0 0 26.996 30.555">
  <g id="paperclip" transform="translate(12.963) rotate(30)">
    <g id="Group_67795" data-name="Group 67795" transform="translate(0 0)">
      <path id="Path_35716" data-name="Path 35716" d="M16.2,5.671V17.824a8.1,8.1,0,1,1-16.2,0V10.533a.81.81,0,0,1,1.62,0v7.292a6.482,6.482,0,1,0,12.963,0V5.671a4.051,4.051,0,1,0-8.1,0V16.2a1.62,1.62,0,0,0,3.241,0V7.292a.81.81,0,1,1,1.62,0V16.2a3.241,3.241,0,1,1-6.482,0V5.671a5.671,5.671,0,1,1,11.343,0Z" transform="translate(0 0)" fill="#11141a"/>
    </g>
  </g>
</svg>
