<svg xmlns="http://www.w3.org/2000/svg" width="50" height="50" viewBox="0 0 50 50">
  <g id="Group_68095" data-name="Group 68095" transform="translate(-278 -224)">
    <circle id="Ellipse_63" data-name="Ellipse 63" cx="25" cy="25" r="25" transform="translate(278 224)" fill="#4bcfda"/>
    <g id="Iconly_Bold_Notification" data-name="Iconly/Bold/Notification" transform="translate(294.5 239)">
      <g id="Notification">
        <path id="Notification-2" data-name="Notification" d="M7.983,19.967a3.627,3.627,0,0,1-1.714-.732,1.552,1.552,0,0,1-.7-1.174c0-.5.462-.734.889-.833a25.955,25.955,0,0,1,4.046,0c.427.1.889.329.889.833a1.559,1.559,0,0,1-.695,1.174,3.642,3.642,0,0,1-1.714.731A3.979,3.979,0,0,1,8.48,20,3.666,3.666,0,0,1,7.983,19.967ZM3.764,15.747a4.533,4.533,0,0,1-2.9-1.413A3.614,3.614,0,0,1,0,11.957a3.365,3.365,0,0,1,.731-2.31A3.8,3.8,0,0,0,1.794,6.8V6.37A5.625,5.625,0,0,1,3.077,2.512,7.076,7.076,0,0,1,8.456,0h.09a7.039,7.039,0,0,1,5.467,2.625,5.542,5.542,0,0,1,1.2,3.745V6.8a3.886,3.886,0,0,0,1.062,2.849A3.361,3.361,0,0,1,17,11.957a3.613,3.613,0,0,1-.863,2.378,4.539,4.539,0,0,1-2.9,1.413c-1.571.134-3.144.247-4.737.247A41.689,41.689,0,0,1,3.764,15.747Z" fill="#fff"/>
      </g>
    </g>
  </g>
</svg>
