<svg xmlns="http://www.w3.org/2000/svg" width="50" height="50" viewBox="0 0 50 50">
  <g id="Group_68096" data-name="Group 68096" transform="translate(-278 -224)">
    <circle id="Ellipse_63" data-name="Ellipse 63" cx="25" cy="25" r="25" transform="translate(278 224)" fill="#4bcfda"/>
    <path id="megaphone_1_" data-name="megaphone (1)" d="M18.113,12.762,16.254,10.9,17.4,9.754l1.859,1.859Zm1.149-8.125L18.113,3.488,16.285,5.316l1.149,1.149ZM19.5,7.313H17.063V8.938H19.5Zm-12.7,6.5H2.225L4.753,19.5H5.891a2.236,2.236,0,0,0,2.043-3.143ZM14.625,0V16.25H13a4.067,4.067,0,0,0-4.062-4.063h-6.5A2.438,2.438,0,0,1,0,9.75V6.5A2.438,2.438,0,0,1,2.437,4.063h6.5A4.067,4.067,0,0,0,13,0Z" transform="translate(293.25 239.25)" fill="#fff"/>
  </g>
</svg>
