<svg id="strikethrough" xmlns="http://www.w3.org/2000/svg" width="22.507" height="19.694" viewBox="0 0 22.507 19.694">
  <g id="Group_67805" data-name="Group 67805">
    <path id="Path_35726" data-name="Path 35726" d="M21.452,41.122l-8.827,0c-.363-.108-1.86-.537-1.86-.537C7.1,39.53,6.084,38.612,6.427,36.664c.427-2.435,3.592-2.836,6.176-2.437a16.511,16.511,0,0,1,2.762.738,1.077,1.077,0,0,0,1.364-.651,1.051,1.051,0,0,0-.662-1.342,18.6,18.6,0,0,0-3.134-.83c-4.595-.706-8.059.967-8.619,4.162A4.363,4.363,0,0,0,6.44,41.126l-5.385,0a1.016,1.016,0,1,0,0,2.031h20.4a1.016,1.016,0,1,0,0-2.031ZM15.9,45.346a2.571,2.571,0,0,1,.178,1.647c-.427,2.434-3.591,2.834-6.185,2.436a21.018,21.018,0,0,1-3.636-1.054l-.6-.212a1.076,1.076,0,0,0-1.369.642,1.051,1.051,0,0,0,.653,1.347l.592.209a22.6,22.6,0,0,0,4.038,1.155,13.472,13.472,0,0,0,2.025.16c3.565,0,6.123-1.615,6.6-4.323a5.2,5.2,0,0,0-.01-2.007Z" transform="translate(0 -31.982)" fill="#11141a"/>
  </g>
</svg>
