<svg xmlns="http://www.w3.org/2000/svg" width="136.774" height="118.984" viewBox="0 0 136.774 118.984">
  <g id="tether-usdt-logo_1_" data-name="tether-usdt-logo (1)" transform="translate(-0.005 0)">
    <path id="Path_35819" data-name="Path 35819" d="M25.048.584.108,52.97a1.015,1.015,0,0,0,.218,1.185L67.681,118.7a1.028,1.028,0,0,0,1.422,0L136.46,54.158a1.015,1.015,0,0,0,.218-1.185L111.738.588A1.007,1.007,0,0,0,110.819,0H25.974a1.007,1.007,0,0,0-.927.584h0Z" transform="translate(0)" fill="#50af95" fill-rule="evenodd"/>
    <path id="Path_35820" data-name="Path 35820" d="M115.319,82.368h0c-.484.036-2.982.185-8.555.185-4.433,0-7.58-.133-8.684-.185h0c-17.13-.754-29.916-3.735-29.916-7.306S80.95,68.514,98.08,67.749V79.4c1.12.081,4.328.27,8.76.27,5.319,0,7.983-.222,8.462-.266V67.757c17.094.762,29.852,3.744,29.852,7.306s-12.754,6.544-29.852,7.3h0Zm0-15.816V56.127h23.856V40.23H74.224v15.9H98.076V66.548c-19.387.891-33.966,4.731-33.966,9.333s14.579,8.438,33.966,9.333v33.406h17.239V85.2c19.342-.891,33.9-4.727,33.9-9.325s-14.543-8.434-33.9-9.329h0Zm0,0Z" transform="translate(-38.273 -24.019)" fill="#fff" fill-rule="evenodd"/>
  </g>
</svg>
