<svg id="underline" xmlns="http://www.w3.org/2000/svg" width="18.154" height="20.748" viewBox="0 0 18.154 20.748">
  <g id="Group_67804" data-name="Group 67804">
    <path id="Path_35725" data-name="Path 35725" d="M1.621,1.945h.973v7.78a6.484,6.484,0,0,0,12.967,0V1.945h.973a.973.973,0,1,0,0-1.945h-3.89a.973.973,0,1,0,0,1.945h.973v7.78a4.539,4.539,0,0,1-9.077,0V1.945h.973A.973.973,0,0,0,5.511,0H1.621a.973.973,0,0,0,0,1.945ZM17.182,18.8H.973a.973.973,0,0,0,0,1.945H17.182a.973.973,0,0,0,0-1.945Z" fill="#11141a"/>
  </g>
</svg>
