<svg xmlns="http://www.w3.org/2000/svg" width="105.236" height="121.516" viewBox="0 0 105.236 121.516">
  <g id="Group_68089" data-name="Group 68089" transform="translate(-214.186 -1254.191)">
    <path id="Path_35853" data-name="Path 35853" d="M475.928,1312V1284.57h0l-52.618-30.378-23.8,13.742,23.8,13.742Z" transform="translate(-156.506)" fill="#4bcfda"/>
    <path id="Path_35854" data-name="Path 35854" d="M581.407,1677.3l-5.443,3.142-1.23.71h0l-22.143,12.784,23.8,13.743,28.815-16.637V1663.56l-23.8,13.742Z" transform="translate(-285.788 -345.717)" fill="#4bcfda"/>
    <path id="Path_35855" data-name="Path 35855" d="M367.27,1751.943v27.485l28.815,16.637,23.8-13.743-29.37-16.957Z" transform="translate(-129.282 -420.357)" fill="#4bcfda"/>
    <path id="Path_35856" data-name="Path 35856" d="M237.989,1537.952l-23.8,13.743v33.272l23.8,13.743v-60.758Z" transform="translate(0 -239.639)" fill="#4bcfda"/>
    <path id="Path_35857" data-name="Path 35857" d="M266.8,1356.317,243,1342.574l-28.815,16.636V1386.7l23.8-13.743Z" transform="translate(0 -74.64)" fill="#4bcfda"/>
    <path id="Path_35858" data-name="Path 35858" d="M505.9,1514.453,458.323,1487,435,1500.994l47.1,27.2Z" transform="translate(-186.48 -196.61)" fill="#4bcfda"/>
    <path id="Path_35859" data-name="Path 35859" d="M706.05,1663.565,672,1671.407l10.249,5.9Z" transform="translate(-386.63 -345.721)" fill="#fff"/>
    <path id="Path_35860" data-name="Path 35860" d="M516.788,1838.266l29.37,16.957,8.757-5.026-32.56-8.717Z" transform="translate(-255.551 -493.259)" fill="#fff"/>
    <path id="Path_35861" data-name="Path 35861" d="M367.27,1779.428l7.888,4.554-7.888-32.039Z" transform="translate(-129.282 -420.357)" fill="#fff"/>
    <path id="Path_35862" data-name="Path 35862" d="M356,1346.528l30.568,9.789-23.8-13.742Z" transform="translate(-119.764 -74.64)" fill="#fff"/>
    <path id="Path_35863" data-name="Path 35863" d="M214.186,1559.218l24.065-21.239-24,13.4Z" transform="translate(0 -239.663)" fill="#fff"/>
  </g>
</svg>
