<svg xmlns="http://www.w3.org/2000/svg" xmlns:xlink="http://www.w3.org/1999/xlink" width="104" height="103" viewBox="0 0 104 103">
  <defs>
    <clipPath id="clip-path">
      <rect id="Rectangle_147976" data-name="Rectangle 147976" width="104" height="103" transform="translate(2944 -3644)" fill="#fff" stroke="#707070" stroke-width="1"/>
    </clipPath>
    <filter id="Rectangle_5" x="-41.5" y="-22.5" width="167" height="166" filterUnits="userSpaceOnUse">
      <feOffset dx="-10" dy="9" input="SourceAlpha"/>
      <feGaussianBlur stdDeviation="10.5" result="blur"/>
      <feFlood flood-color="#8098d5" flood-opacity="0.075"/>
      <feComposite operator="in" in2="blur"/>
      <feComposite in="SourceGraphic"/>
    </filter>
  </defs>
  <g id="Mask_Group_3" data-name="Mask Group 3" transform="translate(-2944 3644)" clip-path="url(#clip-path)">
    <g id="Group_68091" data-name="Group 68091" transform="translate(1487 -3901)">
      <g transform="matrix(1, 0, 0, 1, 1457, 257)" filter="url(#Rectangle_5)">
        <rect id="Rectangle_5-2" data-name="Rectangle 5" width="104" height="103" rx="51.5" fill="#56d2dc"/>
      </g>
      <g id="Group_68087" data-name="Group 68087" transform="translate(1266.015 -978.945)">
        <path id="Path_35842" data-name="Path 35842" d="M441.333,1285.83v-15.015h0l-28.8-16.627-13.028,7.521,13.028,7.521Z" transform="translate(-169.55)" fill="#fff"/>
        <path id="Path_35843" data-name="Path 35843" d="M568.363,1671.08l-2.979,1.72-.673.389h0l-12.119,7,13.028,7.521,15.771-9.106V1663.56l-13.028,7.521Z" transform="translate(-309.607 -374.531)" fill="#fff"/>
        <path id="Path_35844" data-name="Path 35844" d="M367.27,1751.94v15.043l15.771,9.106,13.028-7.522-16.075-9.281Z" transform="translate(-140.057 -455.392)" fill="#fff"/>
        <path id="Path_35845" data-name="Path 35845" d="M227.214,1537.95l-13.028,7.521v18.211l13.028,7.522Z" transform="translate(0 -259.612)" fill="#fff"/>
        <path id="Path_35846" data-name="Path 35846" d="M242.985,1350.1l-13.028-7.522-15.771,9.1v15.043l13.028-7.522Z" transform="translate(0 -80.861)" fill="#fff"/>
        <path id="Path_35847" data-name="Path 35847" d="M473.806,1502.03,447.765,1487,435,1494.66l25.778,14.888Z" transform="translate(-202.023 -212.996)" fill="#fff"/>
        <path id="Path_35848" data-name="Path 35848" d="M690.636,1663.56,672,1667.86l5.609,3.229Z" transform="translate(-418.854 -374.535)" fill="#dbdbdb"/>
        <path id="Path_35849" data-name="Path 35849" d="M516.788,1838.27l16.075,9.281,4.793-2.751-17.821-4.771Z" transform="translate(-276.85 -534.37)" fill="#dbdbdb"/>
        <path id="Path_35850" data-name="Path 35850" d="M367.27,1766.99l4.317,2.493-4.317-17.536Z" transform="translate(-140.057 -455.392)" fill="#dbdbdb"/>
        <path id="Path_35851" data-name="Path 35851" d="M356,1344.74l16.73,5.358-13.028-7.522Z" transform="translate(-129.746 -80.861)" fill="#dbdbdb"/>
        <path id="Path_35852" data-name="Path 35852" d="M214.186,1549.6l13.171-11.625-13.133,7.336Z" transform="translate(0 -259.637)" fill="#dbdbdb"/>
      </g>
    </g>
  </g>
</svg>
