<svg xmlns="http://www.w3.org/2000/svg" width="38.15" height="38.15" viewBox="0 0 38.15 38.15">
  <path id="Path_35823" data-name="Path 35823" d="M88.011,43.05a4.611,4.611,0,0,1-4.55-4.55V9.5a4.43,4.43,0,0,1,1.35-3.25,4.374,4.374,0,0,1,3.2-1.35h29a4.43,4.43,0,0,1,3.25,1.35,4.43,4.43,0,0,1,1.35,3.25v29a4.374,4.374,0,0,1-1.35,3.2,4.43,4.43,0,0,1-3.25,1.35Zm14.5-9.9A6.125,6.125,0,0,0,106.136,32a9.847,9.847,0,0,0,2.725-2.95h8.15V9.5h-29V29.05h8.1A10.473,10.473,0,0,0,98.886,32,6.13,6.13,0,0,0,102.511,33.15Zm.05-21.3,7.6,7.6-2.05,2.05-4.1-4.15V27h-2.85V17.35l-4.1,4.15-2.1-2.05Z" transform="translate(-83.461 -4.9)" fill="#fff"/>
</svg>
